%TF.GenerationSoftware,KiCad,Pcbnew,5.1.5+dfsg1-2~bpo10+1*%
%TF.CreationDate,2020-08-19T00:00:04+02:00*%
%TF.ProjectId,antmicro-alvium-flex-csi-adapter,616e746d-6963-4726-9f2d-616c7669756d,1.0.1*%
%TF.SameCoordinates,Original*%
%TF.FileFunction,Paste,Top*%
%TF.FilePolarity,Positive*%
%FSLAX46Y46*%
G04 Gerber Fmt 4.6, Leading zero omitted, Abs format (unit mm)*
G04 Created by KiCad (PCBNEW 5.1.5+dfsg1-2~bpo10+1) date 2020-08-19 00:00:04 commit e5c3baf*
%MOMM*%
%LPD*%
G04 APERTURE LIST*
%ADD10C,0.150000*%
%ADD11R,0.300000X4.000000*%
G04 APERTURE END LIST*
D10*
X285016000Y-214846000D02*
X296516000Y-214846000D01*
X303536000Y-64736000D02*
X303536000Y-75260000D01*
X278009000Y-75260000D02*
X285016000Y-79260000D01*
X296516000Y-79260000D02*
X303536000Y-75260000D01*
X285016000Y-214846000D02*
X285016000Y-79260000D01*
X296516000Y-214846000D02*
X296516000Y-79260000D01*
X168952000Y-79250000D02*
X175929000Y-75250000D01*
X150402000Y-64736000D02*
X150402000Y-75250000D01*
X157452000Y-164786000D02*
X168952000Y-164786000D01*
X157452000Y-164786000D02*
X157452000Y-79250000D01*
X168952000Y-164786000D02*
X168952000Y-79250000D01*
X150402000Y-75250000D02*
X157452000Y-79250000D01*
X233949000Y-214846000D02*
X233949000Y-79260000D01*
X252469000Y-75260000D02*
X259489000Y-79260000D01*
X270989000Y-214846000D02*
X270989000Y-79260000D01*
X259489000Y-214846000D02*
X270989000Y-214846000D01*
X259489000Y-214846000D02*
X259489000Y-79260000D01*
X270989000Y-79260000D02*
X278009000Y-75260000D01*
X226949000Y-75250000D02*
X233949000Y-79260000D01*
X233949000Y-214846000D02*
X245449000Y-214846000D01*
X245449000Y-214846000D02*
X245449000Y-79260000D01*
X245449000Y-79260000D02*
X252469000Y-75260000D01*
X208429000Y-79250000D02*
X201429000Y-75250000D01*
X219929000Y-79250000D02*
X226949000Y-75250000D01*
X208429000Y-164836000D02*
X208429000Y-79250000D01*
X219929000Y-164836000D02*
X219929000Y-79250000D01*
X208429000Y-164836000D02*
X219929000Y-164836000D01*
X194479000Y-79250000D02*
X201429000Y-75250000D01*
X175929000Y-75250000D02*
X182979000Y-79250000D01*
X194479000Y-164786000D02*
X194479000Y-79250000D01*
X182979000Y-164786000D02*
X182979000Y-79250000D01*
X182979000Y-164786000D02*
X194479000Y-164786000D01*
X150402000Y-64736000D02*
X303536000Y-64736000D01*
D11*
X295990500Y-212673000D03*
X295490500Y-212673000D03*
X294990500Y-212673000D03*
X294490500Y-212673000D03*
X293990500Y-212673000D03*
X293490500Y-212673000D03*
X292990500Y-212673000D03*
X292490500Y-212673000D03*
X291990500Y-212673000D03*
X291490500Y-212673000D03*
X290990500Y-212673000D03*
X290490500Y-212673000D03*
X289990500Y-212673000D03*
X289490500Y-212673000D03*
X288990500Y-212673000D03*
X288490500Y-212673000D03*
X287990500Y-212673000D03*
X287490500Y-212673000D03*
X286990500Y-212673000D03*
X286490500Y-212673000D03*
X285990500Y-212673000D03*
X285490500Y-212673000D03*
X278477000Y-66750000D03*
X278977000Y-66750000D03*
X279477000Y-66750000D03*
X279977000Y-66750000D03*
X280477000Y-66750000D03*
X280977000Y-66750000D03*
X281477000Y-66750000D03*
X281977000Y-66750000D03*
X282477000Y-66750000D03*
X282977000Y-66750000D03*
X283477000Y-66750000D03*
X283977000Y-66750000D03*
X284477000Y-66750000D03*
X284977000Y-66750000D03*
X285477000Y-66750000D03*
X285977000Y-66750000D03*
X286477000Y-66750000D03*
X286977000Y-66750000D03*
X287477000Y-66750000D03*
X287977000Y-66750000D03*
X288477000Y-66750000D03*
X288977000Y-66750000D03*
X289477000Y-66750000D03*
X289977000Y-66750000D03*
X290477000Y-66750000D03*
X290977000Y-66750000D03*
X291477000Y-66750000D03*
X291977000Y-66750000D03*
X292477000Y-66750000D03*
X292977000Y-66750000D03*
X293477000Y-66750000D03*
X293977000Y-66750000D03*
X294477000Y-66750000D03*
X294977000Y-66750000D03*
X295477000Y-66750000D03*
X295977000Y-66750000D03*
X296477000Y-66750000D03*
X296977000Y-66750000D03*
X297477000Y-66750000D03*
X297977000Y-66750000D03*
X298477000Y-66750000D03*
X298977000Y-66750000D03*
X299477000Y-66750000D03*
X299977000Y-66750000D03*
X300477000Y-66750000D03*
X300977000Y-66750000D03*
X301477000Y-66750000D03*
X301977000Y-66750000D03*
X302477000Y-66750000D03*
X302977000Y-66750000D03*
X168423000Y-162648500D03*
X167923000Y-162648500D03*
X167423000Y-162648500D03*
X166923000Y-162648500D03*
X166423000Y-162648500D03*
X165923000Y-162648500D03*
X165423000Y-162648500D03*
X164923000Y-162648500D03*
X164423000Y-162648500D03*
X163923000Y-162648500D03*
X163423000Y-162648500D03*
X162923000Y-162648500D03*
X162423000Y-162648500D03*
X161923000Y-162648500D03*
X161423000Y-162648500D03*
X160923000Y-162648500D03*
X160423000Y-162648500D03*
X159923000Y-162648500D03*
X159423000Y-162648500D03*
X158923000Y-162648500D03*
X158423000Y-162648500D03*
X157923000Y-162648500D03*
X175423000Y-66750000D03*
X174923000Y-66750000D03*
X174423000Y-66750000D03*
X173923000Y-66750000D03*
X173423000Y-66750000D03*
X172923000Y-66750000D03*
X172423000Y-66750000D03*
X171923000Y-66750000D03*
X171423000Y-66750000D03*
X170923000Y-66750000D03*
X170423000Y-66750000D03*
X169923000Y-66750000D03*
X169423000Y-66750000D03*
X168923000Y-66750000D03*
X168423000Y-66750000D03*
X167923000Y-66750000D03*
X167423000Y-66750000D03*
X166923000Y-66750000D03*
X166423000Y-66750000D03*
X165923000Y-66750000D03*
X165423000Y-66750000D03*
X164923000Y-66750000D03*
X164423000Y-66750000D03*
X163923000Y-66750000D03*
X163423000Y-66750000D03*
X162923000Y-66750000D03*
X162423000Y-66750000D03*
X161923000Y-66750000D03*
X161423000Y-66750000D03*
X160923000Y-66750000D03*
X160423000Y-66750000D03*
X159923000Y-66750000D03*
X159423000Y-66750000D03*
X158923000Y-66750000D03*
X158423000Y-66750000D03*
X157923000Y-66750000D03*
X157423000Y-66750000D03*
X156923000Y-66750000D03*
X156423000Y-66750000D03*
X155923000Y-66750000D03*
X155423000Y-66750000D03*
X154923000Y-66750000D03*
X154423000Y-66750000D03*
X153923000Y-66750000D03*
X153423000Y-66750000D03*
X152923000Y-66750000D03*
X152423000Y-66750000D03*
X151923000Y-66750000D03*
X151423000Y-66750000D03*
X150923000Y-66750000D03*
X277450000Y-66750000D03*
X276950000Y-66750000D03*
X276450000Y-66750000D03*
X275950000Y-66750000D03*
X275450000Y-66750000D03*
X274950000Y-66750000D03*
X274450000Y-66750000D03*
X273950000Y-66750000D03*
X273450000Y-66750000D03*
X272950000Y-66750000D03*
X272450000Y-66750000D03*
X271950000Y-66750000D03*
X271450000Y-66750000D03*
X270950000Y-66750000D03*
X270450000Y-66750000D03*
X269950000Y-66750000D03*
X269450000Y-66750000D03*
X268950000Y-66750000D03*
X268450000Y-66750000D03*
X267950000Y-66750000D03*
X267450000Y-66750000D03*
X266950000Y-66750000D03*
X266450000Y-66750000D03*
X265950000Y-66750000D03*
X265450000Y-66750000D03*
X264950000Y-66750000D03*
X264450000Y-66750000D03*
X263950000Y-66750000D03*
X263450000Y-66750000D03*
X262950000Y-66750000D03*
X262450000Y-66750000D03*
X261950000Y-66750000D03*
X261450000Y-66750000D03*
X260950000Y-66750000D03*
X260450000Y-66750000D03*
X259950000Y-66750000D03*
X259450000Y-66750000D03*
X258950000Y-66750000D03*
X258450000Y-66750000D03*
X257950000Y-66750000D03*
X257450000Y-66750000D03*
X256950000Y-66750000D03*
X256450000Y-66750000D03*
X255950000Y-66750000D03*
X255450000Y-66750000D03*
X254950000Y-66750000D03*
X254450000Y-66750000D03*
X253950000Y-66750000D03*
X253450000Y-66750000D03*
X252950000Y-66750000D03*
X227450000Y-66750000D03*
X227950000Y-66750000D03*
X228450000Y-66750000D03*
X228950000Y-66750000D03*
X229450000Y-66750000D03*
X229950000Y-66750000D03*
X230450000Y-66750000D03*
X230950000Y-66750000D03*
X231450000Y-66750000D03*
X231950000Y-66750000D03*
X232450000Y-66750000D03*
X232950000Y-66750000D03*
X233450000Y-66750000D03*
X233950000Y-66750000D03*
X234450000Y-66750000D03*
X234950000Y-66750000D03*
X235450000Y-66750000D03*
X235950000Y-66750000D03*
X236450000Y-66750000D03*
X236950000Y-66750000D03*
X237450000Y-66750000D03*
X237950000Y-66750000D03*
X238450000Y-66750000D03*
X238950000Y-66750000D03*
X239450000Y-66750000D03*
X239950000Y-66750000D03*
X240450000Y-66750000D03*
X240950000Y-66750000D03*
X241450000Y-66750000D03*
X241950000Y-66750000D03*
X242450000Y-66750000D03*
X242950000Y-66750000D03*
X243450000Y-66750000D03*
X243950000Y-66750000D03*
X244450000Y-66750000D03*
X244950000Y-66750000D03*
X245450000Y-66750000D03*
X245950000Y-66750000D03*
X246450000Y-66750000D03*
X246950000Y-66750000D03*
X247450000Y-66750000D03*
X247950000Y-66750000D03*
X248450000Y-66750000D03*
X248950000Y-66750000D03*
X249450000Y-66750000D03*
X249950000Y-66750000D03*
X250450000Y-66750000D03*
X250950000Y-66750000D03*
X251450000Y-66750000D03*
X251950000Y-66750000D03*
X226450000Y-66750000D03*
X225950000Y-66750000D03*
X225450000Y-66750000D03*
X224950000Y-66750000D03*
X224450000Y-66750000D03*
X223950000Y-66750000D03*
X223450000Y-66750000D03*
X222950000Y-66750000D03*
X222450000Y-66750000D03*
X221950000Y-66750000D03*
X221450000Y-66750000D03*
X220950000Y-66750000D03*
X220450000Y-66750000D03*
X219950000Y-66750000D03*
X219450000Y-66750000D03*
X218950000Y-66750000D03*
X218450000Y-66750000D03*
X217950000Y-66750000D03*
X217450000Y-66750000D03*
X216950000Y-66750000D03*
X216450000Y-66750000D03*
X215950000Y-66750000D03*
X215450000Y-66750000D03*
X214950000Y-66750000D03*
X214450000Y-66750000D03*
X213950000Y-66750000D03*
X213450000Y-66750000D03*
X212950000Y-66750000D03*
X212450000Y-66750000D03*
X211950000Y-66750000D03*
X211450000Y-66750000D03*
X210950000Y-66750000D03*
X210450000Y-66750000D03*
X209950000Y-66750000D03*
X209450000Y-66750000D03*
X208950000Y-66750000D03*
X208450000Y-66750000D03*
X207950000Y-66750000D03*
X207450000Y-66750000D03*
X206950000Y-66750000D03*
X206450000Y-66750000D03*
X205950000Y-66750000D03*
X205450000Y-66750000D03*
X204950000Y-66750000D03*
X204450000Y-66750000D03*
X203950000Y-66750000D03*
X203450000Y-66750000D03*
X202950000Y-66750000D03*
X202450000Y-66750000D03*
X201950000Y-66750000D03*
X176450000Y-66750000D03*
X176950000Y-66750000D03*
X177450000Y-66750000D03*
X177950000Y-66750000D03*
X178450000Y-66750000D03*
X178950000Y-66750000D03*
X179450000Y-66750000D03*
X179950000Y-66750000D03*
X180450000Y-66750000D03*
X180950000Y-66750000D03*
X181450000Y-66750000D03*
X181950000Y-66750000D03*
X182450000Y-66750000D03*
X182950000Y-66750000D03*
X183450000Y-66750000D03*
X183950000Y-66750000D03*
X184450000Y-66750000D03*
X184950000Y-66750000D03*
X185450000Y-66750000D03*
X185950000Y-66750000D03*
X186450000Y-66750000D03*
X186950000Y-66750000D03*
X187450000Y-66750000D03*
X187950000Y-66750000D03*
X188450000Y-66750000D03*
X188950000Y-66750000D03*
X189450000Y-66750000D03*
X189950000Y-66750000D03*
X190450000Y-66750000D03*
X190950000Y-66750000D03*
X191450000Y-66750000D03*
X191950000Y-66750000D03*
X192450000Y-66750000D03*
X192950000Y-66750000D03*
X193450000Y-66750000D03*
X193950000Y-66750000D03*
X194450000Y-66750000D03*
X194950000Y-66750000D03*
X195450000Y-66750000D03*
X195950000Y-66750000D03*
X196450000Y-66750000D03*
X196950000Y-66750000D03*
X197450000Y-66750000D03*
X197950000Y-66750000D03*
X198450000Y-66750000D03*
X198950000Y-66750000D03*
X199450000Y-66750000D03*
X199950000Y-66750000D03*
X200450000Y-66750000D03*
X200950000Y-66750000D03*
M02*
