%TF.GenerationSoftware,KiCad,Pcbnew,5.1.5+dfsg1-2~bpo10+1*%
%TF.CreationDate,2020-08-19T00:00:04+02:00*%
%TF.ProjectId,antmicro-alvium-flex-csi-adapter,616e746d-6963-4726-9f2d-616c7669756d,1.0.1*%
%TF.SameCoordinates,Original*%
%TF.FileFunction,Legend,Bot*%
%TF.FilePolarity,Positive*%
%FSLAX46Y46*%
G04 Gerber Fmt 4.6, Leading zero omitted, Abs format (unit mm)*
G04 Created by KiCad (PCBNEW 5.1.5+dfsg1-2~bpo10+1) date 2020-08-19 00:00:04 commit e5c3baf*
%MOMM*%
%LPD*%
G04 APERTURE LIST*
%ADD10C,0.150000*%
%ADD11R,0.402000X4.102000*%
G04 APERTURE END LIST*
D10*
X285616485Y-207359380D02*
X286187914Y-207359380D01*
X285902200Y-207359380D02*
X285902200Y-206359380D01*
X285997438Y-206502238D01*
X286092676Y-206597476D01*
X286187914Y-206645095D01*
X296036904Y-206422619D02*
X295989285Y-206375000D01*
X295894047Y-206327380D01*
X295655952Y-206327380D01*
X295560714Y-206375000D01*
X295513095Y-206422619D01*
X295465476Y-206517857D01*
X295465476Y-206613095D01*
X295513095Y-206755952D01*
X296084523Y-207327380D01*
X295465476Y-207327380D01*
X295084523Y-206422619D02*
X295036904Y-206375000D01*
X294941666Y-206327380D01*
X294703571Y-206327380D01*
X294608333Y-206375000D01*
X294560714Y-206422619D01*
X294513095Y-206517857D01*
X294513095Y-206613095D01*
X294560714Y-206755952D01*
X295132142Y-207327380D01*
X294513095Y-207327380D01*
X157914285Y-157277380D02*
X158485714Y-157277380D01*
X158200000Y-157277380D02*
X158200000Y-156277380D01*
X158295238Y-156420238D01*
X158390476Y-156515476D01*
X158485714Y-156563095D01*
X168236904Y-156372619D02*
X168189285Y-156325000D01*
X168094047Y-156277380D01*
X167855952Y-156277380D01*
X167760714Y-156325000D01*
X167713095Y-156372619D01*
X167665476Y-156467857D01*
X167665476Y-156563095D01*
X167713095Y-156705952D01*
X168284523Y-157277380D01*
X167665476Y-157277380D01*
X167284523Y-156372619D02*
X167236904Y-156325000D01*
X167141666Y-156277380D01*
X166903571Y-156277380D01*
X166808333Y-156325000D01*
X166760714Y-156372619D01*
X166713095Y-156467857D01*
X166713095Y-156563095D01*
X166760714Y-156705952D01*
X167332142Y-157277380D01*
X166713095Y-157277380D01*
X285016000Y-214846000D02*
X296516000Y-214846000D01*
X303536000Y-64736000D02*
X303536000Y-75260000D01*
X278009000Y-75260000D02*
X285016000Y-79260000D01*
X296516000Y-79260000D02*
X303536000Y-75260000D01*
X285016000Y-214846000D02*
X285016000Y-79260000D01*
X296516000Y-214846000D02*
X296516000Y-79260000D01*
X168952000Y-79250000D02*
X175929000Y-75250000D01*
X150402000Y-64736000D02*
X150402000Y-75250000D01*
X157452000Y-164786000D02*
X168952000Y-164786000D01*
X157452000Y-164786000D02*
X157452000Y-79250000D01*
X168952000Y-164786000D02*
X168952000Y-79250000D01*
X150402000Y-75250000D02*
X157452000Y-79250000D01*
X235836904Y-206322619D02*
X235789285Y-206275000D01*
X235694047Y-206227380D01*
X235455952Y-206227380D01*
X235360714Y-206275000D01*
X235313095Y-206322619D01*
X235265476Y-206417857D01*
X235265476Y-206513095D01*
X235313095Y-206655952D01*
X235884523Y-207227380D01*
X235265476Y-207227380D01*
X234884523Y-206322619D02*
X234836904Y-206275000D01*
X234741666Y-206227380D01*
X234503571Y-206227380D01*
X234408333Y-206275000D01*
X234360714Y-206322619D01*
X234313095Y-206417857D01*
X234313095Y-206513095D01*
X234360714Y-206655952D01*
X234932142Y-207227380D01*
X234313095Y-207227380D01*
X210486904Y-156322619D02*
X210439285Y-156275000D01*
X210344047Y-156227380D01*
X210105952Y-156227380D01*
X210010714Y-156275000D01*
X209963095Y-156322619D01*
X209915476Y-156417857D01*
X209915476Y-156513095D01*
X209963095Y-156655952D01*
X210534523Y-157227380D01*
X209915476Y-157227380D01*
X209534523Y-156322619D02*
X209486904Y-156275000D01*
X209391666Y-156227380D01*
X209153571Y-156227380D01*
X209058333Y-156275000D01*
X209010714Y-156322619D01*
X208963095Y-156417857D01*
X208963095Y-156513095D01*
X209010714Y-156655952D01*
X209582142Y-157227380D01*
X208963095Y-157227380D01*
X185086904Y-156397619D02*
X185039285Y-156350000D01*
X184944047Y-156302380D01*
X184705952Y-156302380D01*
X184610714Y-156350000D01*
X184563095Y-156397619D01*
X184515476Y-156492857D01*
X184515476Y-156588095D01*
X184563095Y-156730952D01*
X185134523Y-157302380D01*
X184515476Y-157302380D01*
X184134523Y-156397619D02*
X184086904Y-156350000D01*
X183991666Y-156302380D01*
X183753571Y-156302380D01*
X183658333Y-156350000D01*
X183610714Y-156397619D01*
X183563095Y-156492857D01*
X183563095Y-156588095D01*
X183610714Y-156730952D01*
X184182142Y-157302380D01*
X183563095Y-157302380D01*
X193264285Y-157302380D02*
X193835714Y-157302380D01*
X193550000Y-157302380D02*
X193550000Y-156302380D01*
X193645238Y-156445238D01*
X193740476Y-156540476D01*
X193835714Y-156588095D01*
X218864285Y-157302380D02*
X219435714Y-157302380D01*
X219150000Y-157302380D02*
X219150000Y-156302380D01*
X219245238Y-156445238D01*
X219340476Y-156540476D01*
X219435714Y-156588095D01*
X244364285Y-207277380D02*
X244935714Y-207277380D01*
X244650000Y-207277380D02*
X244650000Y-206277380D01*
X244745238Y-206420238D01*
X244840476Y-206515476D01*
X244935714Y-206563095D01*
X261368904Y-206354619D02*
X261321285Y-206307000D01*
X261226047Y-206259380D01*
X260987952Y-206259380D01*
X260892714Y-206307000D01*
X260845095Y-206354619D01*
X260797476Y-206449857D01*
X260797476Y-206545095D01*
X260845095Y-206687952D01*
X261416523Y-207259380D01*
X260797476Y-207259380D01*
X260416523Y-206354619D02*
X260368904Y-206307000D01*
X260273666Y-206259380D01*
X260035571Y-206259380D01*
X259940333Y-206307000D01*
X259892714Y-206354619D01*
X259845095Y-206449857D01*
X259845095Y-206545095D01*
X259892714Y-206687952D01*
X260464142Y-207259380D01*
X259845095Y-207259380D01*
X269864285Y-207327380D02*
X270435714Y-207327380D01*
X270150000Y-207327380D02*
X270150000Y-206327380D01*
X270245238Y-206470238D01*
X270340476Y-206565476D01*
X270435714Y-206613095D01*
X233949000Y-214846000D02*
X233949000Y-79260000D01*
X252469000Y-75260000D02*
X259489000Y-79260000D01*
X270989000Y-214846000D02*
X270989000Y-79260000D01*
X259489000Y-214846000D02*
X270989000Y-214846000D01*
X259489000Y-214846000D02*
X259489000Y-79260000D01*
X270989000Y-79260000D02*
X278009000Y-75260000D01*
X226949000Y-75250000D02*
X233949000Y-79260000D01*
X233949000Y-214846000D02*
X245449000Y-214846000D01*
X245449000Y-214846000D02*
X245449000Y-79260000D01*
X245449000Y-79260000D02*
X252469000Y-75260000D01*
X208429000Y-79250000D02*
X201429000Y-75250000D01*
X219929000Y-79250000D02*
X226949000Y-75250000D01*
X208429000Y-164836000D02*
X208429000Y-79250000D01*
X219929000Y-164836000D02*
X219929000Y-79250000D01*
X208429000Y-164836000D02*
X219929000Y-164836000D01*
X194479000Y-79250000D02*
X201429000Y-75250000D01*
X175929000Y-75250000D02*
X182979000Y-79250000D01*
X194479000Y-164786000D02*
X194479000Y-79250000D01*
X182979000Y-164786000D02*
X182979000Y-79250000D01*
X182979000Y-164786000D02*
X194479000Y-164786000D01*
X150402000Y-64736000D02*
X303536000Y-64736000D01*
%LPC*%
D11*
X270450000Y-212700000D03*
X269950000Y-212700000D03*
X269450000Y-212700000D03*
X268950000Y-212700000D03*
X268450000Y-212700000D03*
X267950000Y-212700000D03*
X267450000Y-212700000D03*
X266950000Y-212700000D03*
X266450000Y-212700000D03*
X265950000Y-212700000D03*
X265450000Y-212700000D03*
X264950000Y-212700000D03*
X264450000Y-212700000D03*
X263950000Y-212700000D03*
X263450000Y-212700000D03*
X262950000Y-212700000D03*
X262450000Y-212700000D03*
X261950000Y-212700000D03*
X261450000Y-212700000D03*
X260950000Y-212700000D03*
X260450000Y-212700000D03*
X259950000Y-212700000D03*
X244950000Y-212700000D03*
X244450000Y-212700000D03*
X243950000Y-212700000D03*
X243450000Y-212700000D03*
X242950000Y-212700000D03*
X242450000Y-212700000D03*
X241950000Y-212700000D03*
X241450000Y-212700000D03*
X240950000Y-212700000D03*
X240450000Y-212700000D03*
X239950000Y-212700000D03*
X239450000Y-212700000D03*
X238950000Y-212700000D03*
X238450000Y-212700000D03*
X237950000Y-212700000D03*
X237450000Y-212700000D03*
X236950000Y-212700000D03*
X236450000Y-212700000D03*
X235950000Y-212700000D03*
X235450000Y-212700000D03*
X234950000Y-212700000D03*
X234450000Y-212700000D03*
X219450000Y-162700000D03*
X218950000Y-162700000D03*
X218450000Y-162700000D03*
X217950000Y-162700000D03*
X217450000Y-162700000D03*
X216950000Y-162700000D03*
X216450000Y-162700000D03*
X215950000Y-162700000D03*
X215450000Y-162700000D03*
X214950000Y-162700000D03*
X214450000Y-162700000D03*
X213950000Y-162700000D03*
X213450000Y-162700000D03*
X212950000Y-162700000D03*
X212450000Y-162700000D03*
X211950000Y-162700000D03*
X211450000Y-162700000D03*
X210950000Y-162700000D03*
X210450000Y-162700000D03*
X209950000Y-162700000D03*
X209450000Y-162700000D03*
X208950000Y-162700000D03*
X193950000Y-162700000D03*
X193450000Y-162700000D03*
X192950000Y-162700000D03*
X192450000Y-162700000D03*
X191950000Y-162700000D03*
X191450000Y-162700000D03*
X190950000Y-162700000D03*
X190450000Y-162700000D03*
X189950000Y-162700000D03*
X189450000Y-162700000D03*
X188950000Y-162700000D03*
X188450000Y-162700000D03*
X187950000Y-162700000D03*
X187450000Y-162700000D03*
X186950000Y-162700000D03*
X186450000Y-162700000D03*
X185950000Y-162700000D03*
X185450000Y-162700000D03*
X184950000Y-162700000D03*
X184450000Y-162700000D03*
X183950000Y-162700000D03*
X183450000Y-162700000D03*
M02*
