%TF.GenerationSoftware,KiCad,Pcbnew,5.1.5+dfsg1-2~bpo10+1*%
%TF.CreationDate,2020-08-19T00:00:04+02:00*%
%TF.ProjectId,antmicro-alvium-flex-csi-adapter,616e746d-6963-4726-9f2d-616c7669756d,1.0.1*%
%TF.SameCoordinates,Original*%
%TF.FileFunction,Soldermask,Top*%
%TF.FilePolarity,Negative*%
%FSLAX46Y46*%
G04 Gerber Fmt 4.6, Leading zero omitted, Abs format (unit mm)*
G04 Created by KiCad (PCBNEW 5.1.5+dfsg1-2~bpo10+1) date 2020-08-19 00:00:04 commit e5c3baf*
%MOMM*%
%LPD*%
G04 APERTURE LIST*
%ADD10C,0.150000*%
%ADD11C,0.100000*%
G04 APERTURE END LIST*
D10*
X285016000Y-214846000D02*
X296516000Y-214846000D01*
X303536000Y-64736000D02*
X303536000Y-75260000D01*
X278009000Y-75260000D02*
X285016000Y-79260000D01*
X296516000Y-79260000D02*
X303536000Y-75260000D01*
X285016000Y-214846000D02*
X285016000Y-79260000D01*
X296516000Y-214846000D02*
X296516000Y-79260000D01*
X168952000Y-79250000D02*
X175929000Y-75250000D01*
X150402000Y-64736000D02*
X150402000Y-75250000D01*
X157452000Y-164786000D02*
X168952000Y-164786000D01*
X157452000Y-164786000D02*
X157452000Y-79250000D01*
X168952000Y-164786000D02*
X168952000Y-79250000D01*
X150402000Y-75250000D02*
X157452000Y-79250000D01*
X233949000Y-214846000D02*
X233949000Y-79260000D01*
X252469000Y-75260000D02*
X259489000Y-79260000D01*
X270989000Y-214846000D02*
X270989000Y-79260000D01*
X259489000Y-214846000D02*
X270989000Y-214846000D01*
X259489000Y-214846000D02*
X259489000Y-79260000D01*
X270989000Y-79260000D02*
X278009000Y-75260000D01*
X226949000Y-75250000D02*
X233949000Y-79260000D01*
X233949000Y-214846000D02*
X245449000Y-214846000D01*
X245449000Y-214846000D02*
X245449000Y-79260000D01*
X245449000Y-79260000D02*
X252469000Y-75260000D01*
X208429000Y-79250000D02*
X201429000Y-75250000D01*
X219929000Y-79250000D02*
X226949000Y-75250000D01*
X208429000Y-164836000D02*
X208429000Y-79250000D01*
X219929000Y-164836000D02*
X219929000Y-79250000D01*
X208429000Y-164836000D02*
X219929000Y-164836000D01*
X194479000Y-79250000D02*
X201429000Y-75250000D01*
X175929000Y-75250000D02*
X182979000Y-79250000D01*
X194479000Y-164786000D02*
X194479000Y-79250000D01*
X182979000Y-164786000D02*
X182979000Y-79250000D01*
X182979000Y-164786000D02*
X194479000Y-164786000D01*
X150402000Y-64736000D02*
X303536000Y-64736000D01*
D11*
G36*
X296191500Y-214724000D02*
G01*
X285289500Y-214724000D01*
X285289500Y-210622000D01*
X296191500Y-210622000D01*
X296191500Y-214724000D01*
G37*
G36*
X168624000Y-164699500D02*
G01*
X157722000Y-164699500D01*
X157722000Y-160597500D01*
X168624000Y-160597500D01*
X168624000Y-164699500D01*
G37*
G36*
X252151000Y-68801000D02*
G01*
X227249000Y-68801000D01*
X227249000Y-64699000D01*
X252151000Y-64699000D01*
X252151000Y-68801000D01*
G37*
G36*
X226651000Y-68801000D02*
G01*
X201749000Y-68801000D01*
X201749000Y-64699000D01*
X226651000Y-64699000D01*
X226651000Y-68801000D01*
G37*
G36*
X277651000Y-68801000D02*
G01*
X252749000Y-68801000D01*
X252749000Y-64699000D01*
X277651000Y-64699000D01*
X277651000Y-68801000D01*
G37*
G36*
X201151000Y-68801000D02*
G01*
X176249000Y-68801000D01*
X176249000Y-64699000D01*
X201151000Y-64699000D01*
X201151000Y-68801000D01*
G37*
G36*
X303178000Y-68801000D02*
G01*
X278276000Y-68801000D01*
X278276000Y-64699000D01*
X303178000Y-64699000D01*
X303178000Y-68801000D01*
G37*
G36*
X175624000Y-68801000D02*
G01*
X150722000Y-68801000D01*
X150722000Y-64699000D01*
X175624000Y-64699000D01*
X175624000Y-68801000D01*
G37*
M02*
