%TF.GenerationSoftware,KiCad,Pcbnew,5.1.5+dfsg1-2~bpo10+1*%
%TF.CreationDate,2020-08-19T00:00:04+02:00*%
%TF.ProjectId,antmicro-alvium-flex-csi-adapter,616e746d-6963-4726-9f2d-616c7669756d,1.0.1*%
%TF.SameCoordinates,Original*%
%TF.FileFunction,Other,Fab,Bot*%
%FSLAX46Y46*%
G04 Gerber Fmt 4.6, Leading zero omitted, Abs format (unit mm)*
G04 Created by KiCad (PCBNEW 5.1.5+dfsg1-2~bpo10+1) date 2020-08-19 00:00:04 commit e5c3baf*
%MOMM*%
%LPD*%
G04 APERTURE LIST*
%ADD10C,0.150000*%
G04 APERTURE END LIST*
D10*
X296459500Y-214832000D02*
X285059500Y-214832000D01*
X271719095Y-211045761D02*
X271861952Y-211093380D01*
X272100047Y-211093380D01*
X272195285Y-211045761D01*
X272242904Y-210998142D01*
X272290523Y-210902904D01*
X272290523Y-210807666D01*
X272242904Y-210712428D01*
X272195285Y-210664809D01*
X272100047Y-210617190D01*
X271909571Y-210569571D01*
X271814333Y-210521952D01*
X271766714Y-210474333D01*
X271719095Y-210379095D01*
X271719095Y-210283857D01*
X271766714Y-210188619D01*
X271814333Y-210141000D01*
X271909571Y-210093380D01*
X272147666Y-210093380D01*
X272290523Y-210141000D01*
X272576238Y-210426714D02*
X272957190Y-210426714D01*
X272719095Y-210093380D02*
X272719095Y-210950523D01*
X272766714Y-211045761D01*
X272861952Y-211093380D01*
X272957190Y-211093380D01*
X273290523Y-211093380D02*
X273290523Y-210426714D01*
X273290523Y-210093380D02*
X273242904Y-210141000D01*
X273290523Y-210188619D01*
X273338142Y-210141000D01*
X273290523Y-210093380D01*
X273290523Y-210188619D01*
X273623857Y-210426714D02*
X274004809Y-210426714D01*
X273766714Y-211093380D02*
X273766714Y-210236238D01*
X273814333Y-210141000D01*
X273909571Y-210093380D01*
X274004809Y-210093380D01*
X274195285Y-210426714D02*
X274576238Y-210426714D01*
X274338142Y-211093380D02*
X274338142Y-210236238D01*
X274385761Y-210141000D01*
X274481000Y-210093380D01*
X274576238Y-210093380D01*
X275290523Y-211045761D02*
X275195285Y-211093380D01*
X275004809Y-211093380D01*
X274909571Y-211045761D01*
X274861952Y-210950523D01*
X274861952Y-210569571D01*
X274909571Y-210474333D01*
X275004809Y-210426714D01*
X275195285Y-210426714D01*
X275290523Y-210474333D01*
X275338142Y-210569571D01*
X275338142Y-210664809D01*
X274861952Y-210760047D01*
X275766714Y-210426714D02*
X275766714Y-211093380D01*
X275766714Y-210521952D02*
X275814333Y-210474333D01*
X275909571Y-210426714D01*
X276052428Y-210426714D01*
X276147666Y-210474333D01*
X276195285Y-210569571D01*
X276195285Y-211093380D01*
X277052428Y-211045761D02*
X276957190Y-211093380D01*
X276766714Y-211093380D01*
X276671476Y-211045761D01*
X276623857Y-210950523D01*
X276623857Y-210569571D01*
X276671476Y-210474333D01*
X276766714Y-210426714D01*
X276957190Y-210426714D01*
X277052428Y-210474333D01*
X277100047Y-210569571D01*
X277100047Y-210664809D01*
X276623857Y-210760047D01*
X277528619Y-211093380D02*
X277528619Y-210426714D01*
X277528619Y-210617190D02*
X277576238Y-210521952D01*
X277623857Y-210474333D01*
X277719095Y-210426714D01*
X277814333Y-210426714D01*
X279242904Y-210569571D02*
X279385761Y-210617190D01*
X279433380Y-210664809D01*
X279481000Y-210760047D01*
X279481000Y-210902904D01*
X279433380Y-210998142D01*
X279385761Y-211045761D01*
X279290523Y-211093380D01*
X278909571Y-211093380D01*
X278909571Y-210093380D01*
X279242904Y-210093380D01*
X279338142Y-210141000D01*
X279385761Y-210188619D01*
X279433380Y-210283857D01*
X279433380Y-210379095D01*
X279385761Y-210474333D01*
X279338142Y-210521952D01*
X279242904Y-210569571D01*
X278909571Y-210569571D01*
X280100047Y-210093380D02*
X280290523Y-210093380D01*
X280385761Y-210141000D01*
X280481000Y-210236238D01*
X280528619Y-210426714D01*
X280528619Y-210760047D01*
X280481000Y-210950523D01*
X280385761Y-211045761D01*
X280290523Y-211093380D01*
X280100047Y-211093380D01*
X280004809Y-211045761D01*
X279909571Y-210950523D01*
X279861952Y-210760047D01*
X279861952Y-210426714D01*
X279909571Y-210236238D01*
X280004809Y-210141000D01*
X280100047Y-210093380D01*
X280814333Y-210093380D02*
X281385761Y-210093380D01*
X281100047Y-211093380D02*
X281100047Y-210093380D01*
X281576238Y-210093380D02*
X282147666Y-210093380D01*
X281861952Y-211093380D02*
X281861952Y-210093380D01*
X282671476Y-210093380D02*
X282861952Y-210093380D01*
X282957190Y-210141000D01*
X283052428Y-210236238D01*
X283100047Y-210426714D01*
X283100047Y-210760047D01*
X283052428Y-210950523D01*
X282957190Y-211045761D01*
X282861952Y-211093380D01*
X282671476Y-211093380D01*
X282576238Y-211045761D01*
X282481000Y-210950523D01*
X282433380Y-210760047D01*
X282433380Y-210426714D01*
X282481000Y-210236238D01*
X282576238Y-210141000D01*
X282671476Y-210093380D01*
X283528619Y-211093380D02*
X283528619Y-210093380D01*
X283861952Y-210807666D01*
X284195285Y-210093380D01*
X284195285Y-211093380D01*
X296436000Y-207636000D02*
X285036000Y-207636000D01*
X285016000Y-214846000D02*
X296516000Y-214846000D01*
X303536000Y-64736000D02*
X303536000Y-75260000D01*
X278009000Y-75260000D02*
X285016000Y-79260000D01*
X296516000Y-79260000D02*
X303536000Y-75260000D01*
X285016000Y-214846000D02*
X285016000Y-79260000D01*
X296516000Y-214846000D02*
X296516000Y-79260000D01*
X136440095Y-71040761D02*
X136582952Y-71088380D01*
X136821047Y-71088380D01*
X136916285Y-71040761D01*
X136963904Y-70993142D01*
X137011523Y-70897904D01*
X137011523Y-70802666D01*
X136963904Y-70707428D01*
X136916285Y-70659809D01*
X136821047Y-70612190D01*
X136630571Y-70564571D01*
X136535333Y-70516952D01*
X136487714Y-70469333D01*
X136440095Y-70374095D01*
X136440095Y-70278857D01*
X136487714Y-70183619D01*
X136535333Y-70136000D01*
X136630571Y-70088380D01*
X136868666Y-70088380D01*
X137011523Y-70136000D01*
X137297238Y-70421714D02*
X137678190Y-70421714D01*
X137440095Y-70088380D02*
X137440095Y-70945523D01*
X137487714Y-71040761D01*
X137582952Y-71088380D01*
X137678190Y-71088380D01*
X138011523Y-71088380D02*
X138011523Y-70421714D01*
X138011523Y-70088380D02*
X137963904Y-70136000D01*
X138011523Y-70183619D01*
X138059142Y-70136000D01*
X138011523Y-70088380D01*
X138011523Y-70183619D01*
X138344857Y-70421714D02*
X138725809Y-70421714D01*
X138487714Y-71088380D02*
X138487714Y-70231238D01*
X138535333Y-70136000D01*
X138630571Y-70088380D01*
X138725809Y-70088380D01*
X138916285Y-70421714D02*
X139297238Y-70421714D01*
X139059142Y-71088380D02*
X139059142Y-70231238D01*
X139106761Y-70136000D01*
X139202000Y-70088380D01*
X139297238Y-70088380D01*
X140011523Y-71040761D02*
X139916285Y-71088380D01*
X139725809Y-71088380D01*
X139630571Y-71040761D01*
X139582952Y-70945523D01*
X139582952Y-70564571D01*
X139630571Y-70469333D01*
X139725809Y-70421714D01*
X139916285Y-70421714D01*
X140011523Y-70469333D01*
X140059142Y-70564571D01*
X140059142Y-70659809D01*
X139582952Y-70755047D01*
X140487714Y-70421714D02*
X140487714Y-71088380D01*
X140487714Y-70516952D02*
X140535333Y-70469333D01*
X140630571Y-70421714D01*
X140773428Y-70421714D01*
X140868666Y-70469333D01*
X140916285Y-70564571D01*
X140916285Y-71088380D01*
X141773428Y-71040761D02*
X141678190Y-71088380D01*
X141487714Y-71088380D01*
X141392476Y-71040761D01*
X141344857Y-70945523D01*
X141344857Y-70564571D01*
X141392476Y-70469333D01*
X141487714Y-70421714D01*
X141678190Y-70421714D01*
X141773428Y-70469333D01*
X141821047Y-70564571D01*
X141821047Y-70659809D01*
X141344857Y-70755047D01*
X142249619Y-71088380D02*
X142249619Y-70421714D01*
X142249619Y-70612190D02*
X142297238Y-70516952D01*
X142344857Y-70469333D01*
X142440095Y-70421714D01*
X142535333Y-70421714D01*
X143963904Y-70564571D02*
X144106761Y-70612190D01*
X144154380Y-70659809D01*
X144202000Y-70755047D01*
X144202000Y-70897904D01*
X144154380Y-70993142D01*
X144106761Y-71040761D01*
X144011523Y-71088380D01*
X143630571Y-71088380D01*
X143630571Y-70088380D01*
X143963904Y-70088380D01*
X144059142Y-70136000D01*
X144106761Y-70183619D01*
X144154380Y-70278857D01*
X144154380Y-70374095D01*
X144106761Y-70469333D01*
X144059142Y-70516952D01*
X143963904Y-70564571D01*
X143630571Y-70564571D01*
X144821047Y-70088380D02*
X145011523Y-70088380D01*
X145106761Y-70136000D01*
X145202000Y-70231238D01*
X145249619Y-70421714D01*
X145249619Y-70755047D01*
X145202000Y-70945523D01*
X145106761Y-71040761D01*
X145011523Y-71088380D01*
X144821047Y-71088380D01*
X144725809Y-71040761D01*
X144630571Y-70945523D01*
X144582952Y-70755047D01*
X144582952Y-70421714D01*
X144630571Y-70231238D01*
X144725809Y-70136000D01*
X144821047Y-70088380D01*
X145535333Y-70088380D02*
X146106761Y-70088380D01*
X145821047Y-71088380D02*
X145821047Y-70088380D01*
X146297238Y-70088380D02*
X146868666Y-70088380D01*
X146582952Y-71088380D02*
X146582952Y-70088380D01*
X147392476Y-70088380D02*
X147582952Y-70088380D01*
X147678190Y-70136000D01*
X147773428Y-70231238D01*
X147821047Y-70421714D01*
X147821047Y-70755047D01*
X147773428Y-70945523D01*
X147678190Y-71040761D01*
X147582952Y-71088380D01*
X147392476Y-71088380D01*
X147297238Y-71040761D01*
X147202000Y-70945523D01*
X147154380Y-70755047D01*
X147154380Y-70421714D01*
X147202000Y-70231238D01*
X147297238Y-70136000D01*
X147392476Y-70088380D01*
X148249619Y-71088380D02*
X148249619Y-70088380D01*
X148582952Y-70802666D01*
X148916285Y-70088380D01*
X148916285Y-71088380D01*
X168902000Y-157636000D02*
X157502000Y-157636000D01*
X168962000Y-164776000D02*
X157452000Y-164776000D01*
X168952000Y-79250000D02*
X175929000Y-75250000D01*
X150402000Y-64736000D02*
X150402000Y-75250000D01*
X157452000Y-164786000D02*
X168952000Y-164786000D01*
X157452000Y-164786000D02*
X157452000Y-79250000D01*
X144010095Y-161490761D02*
X144152952Y-161538380D01*
X144391047Y-161538380D01*
X144486285Y-161490761D01*
X144533904Y-161443142D01*
X144581523Y-161347904D01*
X144581523Y-161252666D01*
X144533904Y-161157428D01*
X144486285Y-161109809D01*
X144391047Y-161062190D01*
X144200571Y-161014571D01*
X144105333Y-160966952D01*
X144057714Y-160919333D01*
X144010095Y-160824095D01*
X144010095Y-160728857D01*
X144057714Y-160633619D01*
X144105333Y-160586000D01*
X144200571Y-160538380D01*
X144438666Y-160538380D01*
X144581523Y-160586000D01*
X144867238Y-160871714D02*
X145248190Y-160871714D01*
X145010095Y-160538380D02*
X145010095Y-161395523D01*
X145057714Y-161490761D01*
X145152952Y-161538380D01*
X145248190Y-161538380D01*
X145581523Y-161538380D02*
X145581523Y-160871714D01*
X145581523Y-160538380D02*
X145533904Y-160586000D01*
X145581523Y-160633619D01*
X145629142Y-160586000D01*
X145581523Y-160538380D01*
X145581523Y-160633619D01*
X145914857Y-160871714D02*
X146295809Y-160871714D01*
X146057714Y-161538380D02*
X146057714Y-160681238D01*
X146105333Y-160586000D01*
X146200571Y-160538380D01*
X146295809Y-160538380D01*
X146486285Y-160871714D02*
X146867238Y-160871714D01*
X146629142Y-161538380D02*
X146629142Y-160681238D01*
X146676761Y-160586000D01*
X146772000Y-160538380D01*
X146867238Y-160538380D01*
X147581523Y-161490761D02*
X147486285Y-161538380D01*
X147295809Y-161538380D01*
X147200571Y-161490761D01*
X147152952Y-161395523D01*
X147152952Y-161014571D01*
X147200571Y-160919333D01*
X147295809Y-160871714D01*
X147486285Y-160871714D01*
X147581523Y-160919333D01*
X147629142Y-161014571D01*
X147629142Y-161109809D01*
X147152952Y-161205047D01*
X148057714Y-160871714D02*
X148057714Y-161538380D01*
X148057714Y-160966952D02*
X148105333Y-160919333D01*
X148200571Y-160871714D01*
X148343428Y-160871714D01*
X148438666Y-160919333D01*
X148486285Y-161014571D01*
X148486285Y-161538380D01*
X149343428Y-161490761D02*
X149248190Y-161538380D01*
X149057714Y-161538380D01*
X148962476Y-161490761D01*
X148914857Y-161395523D01*
X148914857Y-161014571D01*
X148962476Y-160919333D01*
X149057714Y-160871714D01*
X149248190Y-160871714D01*
X149343428Y-160919333D01*
X149391047Y-161014571D01*
X149391047Y-161109809D01*
X148914857Y-161205047D01*
X149819619Y-161538380D02*
X149819619Y-160871714D01*
X149819619Y-161062190D02*
X149867238Y-160966952D01*
X149914857Y-160919333D01*
X150010095Y-160871714D01*
X150105333Y-160871714D01*
X151533904Y-161014571D02*
X151676761Y-161062190D01*
X151724380Y-161109809D01*
X151772000Y-161205047D01*
X151772000Y-161347904D01*
X151724380Y-161443142D01*
X151676761Y-161490761D01*
X151581523Y-161538380D01*
X151200571Y-161538380D01*
X151200571Y-160538380D01*
X151533904Y-160538380D01*
X151629142Y-160586000D01*
X151676761Y-160633619D01*
X151724380Y-160728857D01*
X151724380Y-160824095D01*
X151676761Y-160919333D01*
X151629142Y-160966952D01*
X151533904Y-161014571D01*
X151200571Y-161014571D01*
X152391047Y-160538380D02*
X152581523Y-160538380D01*
X152676761Y-160586000D01*
X152772000Y-160681238D01*
X152819619Y-160871714D01*
X152819619Y-161205047D01*
X152772000Y-161395523D01*
X152676761Y-161490761D01*
X152581523Y-161538380D01*
X152391047Y-161538380D01*
X152295809Y-161490761D01*
X152200571Y-161395523D01*
X152152952Y-161205047D01*
X152152952Y-160871714D01*
X152200571Y-160681238D01*
X152295809Y-160586000D01*
X152391047Y-160538380D01*
X153105333Y-160538380D02*
X153676761Y-160538380D01*
X153391047Y-161538380D02*
X153391047Y-160538380D01*
X153867238Y-160538380D02*
X154438666Y-160538380D01*
X154152952Y-161538380D02*
X154152952Y-160538380D01*
X154962476Y-160538380D02*
X155152952Y-160538380D01*
X155248190Y-160586000D01*
X155343428Y-160681238D01*
X155391047Y-160871714D01*
X155391047Y-161205047D01*
X155343428Y-161395523D01*
X155248190Y-161490761D01*
X155152952Y-161538380D01*
X154962476Y-161538380D01*
X154867238Y-161490761D01*
X154772000Y-161395523D01*
X154724380Y-161205047D01*
X154724380Y-160871714D01*
X154772000Y-160681238D01*
X154867238Y-160586000D01*
X154962476Y-160538380D01*
X155819619Y-161538380D02*
X155819619Y-160538380D01*
X156152952Y-161252666D01*
X156486285Y-160538380D01*
X156486285Y-161538380D01*
X168952000Y-164786000D02*
X168952000Y-79250000D01*
X150402000Y-75250000D02*
X157452000Y-79250000D01*
X233949000Y-214846000D02*
X233949000Y-79260000D01*
X150409500Y-64781500D02*
X303508000Y-64781500D01*
X150409500Y-72782500D02*
X303508000Y-72782500D01*
X252469000Y-75260000D02*
X259489000Y-79260000D01*
X270989000Y-214846000D02*
X270989000Y-79260000D01*
X259489000Y-214846000D02*
X270989000Y-214846000D01*
X259489000Y-214846000D02*
X259489000Y-79260000D01*
X270989000Y-79260000D02*
X278009000Y-75260000D01*
X226949000Y-75250000D02*
X233949000Y-79260000D01*
X233949000Y-214846000D02*
X245449000Y-214846000D01*
X245449000Y-214846000D02*
X245449000Y-79260000D01*
X245449000Y-79260000D02*
X252469000Y-75260000D01*
X208429000Y-79250000D02*
X201429000Y-75250000D01*
X219929000Y-79250000D02*
X226949000Y-75250000D01*
X208429000Y-164836000D02*
X208429000Y-79250000D01*
X219929000Y-164836000D02*
X219929000Y-79250000D01*
X208429000Y-164836000D02*
X219929000Y-164836000D01*
X194479000Y-79250000D02*
X201429000Y-75250000D01*
X175929000Y-75250000D02*
X182979000Y-79250000D01*
X194479000Y-164786000D02*
X194479000Y-79250000D01*
X182979000Y-164786000D02*
X182979000Y-79250000D01*
X182979000Y-164786000D02*
X194479000Y-164786000D01*
X150402000Y-64736000D02*
X303536000Y-64736000D01*
M02*
