%TF.GenerationSoftware,KiCad,Pcbnew,5.1.5+dfsg1-2~bpo10+1*%
%TF.CreationDate,2020-08-19T00:00:04+02:00*%
%TF.ProjectId,antmicro-alvium-flex-csi-adapter,616e746d-6963-4726-9f2d-616c7669756d,1.0.1*%
%TF.SameCoordinates,Original*%
%TF.FileFunction,Legend,Top*%
%TF.FilePolarity,Positive*%
%FSLAX46Y46*%
G04 Gerber Fmt 4.6, Leading zero omitted, Abs format (unit mm)*
G04 Created by KiCad (PCBNEW 5.1.5+dfsg1-2~bpo10+1) date 2020-08-19 00:00:04 commit e5c3baf*
%MOMM*%
%LPD*%
G04 APERTURE LIST*
%ADD10C,0.300000*%
%ADD11C,0.150000*%
%ADD12R,0.402000X4.102000*%
G04 APERTURE END LIST*
D10*
X280760714Y-73285714D02*
X280094047Y-73285714D01*
X280094047Y-74857142D02*
X280094047Y-71857142D01*
X281046428Y-71857142D01*
X255921428Y-73285714D02*
X256588095Y-73285714D01*
X256873809Y-74857142D02*
X255921428Y-74857142D01*
X255921428Y-71857142D01*
X256873809Y-71857142D01*
X229101190Y-74857142D02*
X229101190Y-71857142D01*
X229577380Y-71857142D01*
X229863095Y-72000000D01*
X230053571Y-72285714D01*
X230148809Y-72571428D01*
X230244047Y-73142857D01*
X230244047Y-73571428D01*
X230148809Y-74142857D01*
X230053571Y-74428571D01*
X229863095Y-74714285D01*
X229577380Y-74857142D01*
X229101190Y-74857142D01*
X204569047Y-74571428D02*
X204473809Y-74714285D01*
X204188095Y-74857142D01*
X203997619Y-74857142D01*
X203711904Y-74714285D01*
X203521428Y-74428571D01*
X203426190Y-74142857D01*
X203330952Y-73571428D01*
X203330952Y-73142857D01*
X203426190Y-72571428D01*
X203521428Y-72285714D01*
X203711904Y-72000000D01*
X203997619Y-71857142D01*
X204188095Y-71857142D01*
X204473809Y-72000000D01*
X204569047Y-72142857D01*
X177567857Y-73285714D02*
X177853571Y-73428571D01*
X177948809Y-73571428D01*
X178044047Y-73857142D01*
X178044047Y-74285714D01*
X177948809Y-74571428D01*
X177853571Y-74714285D01*
X177663095Y-74857142D01*
X176901190Y-74857142D01*
X176901190Y-71857142D01*
X177567857Y-71857142D01*
X177758333Y-72000000D01*
X177853571Y-72142857D01*
X177948809Y-72428571D01*
X177948809Y-72714285D01*
X177853571Y-73000000D01*
X177758333Y-73142857D01*
X177567857Y-73285714D01*
X176901190Y-73285714D01*
X151573809Y-74000000D02*
X152526190Y-74000000D01*
X151383333Y-74857142D02*
X152050000Y-71857142D01*
X152716666Y-74857142D01*
D11*
X183513095Y-156397619D02*
X183560714Y-156350000D01*
X183655952Y-156302380D01*
X183894047Y-156302380D01*
X183989285Y-156350000D01*
X184036904Y-156397619D01*
X184084523Y-156492857D01*
X184084523Y-156588095D01*
X184036904Y-156730952D01*
X183465476Y-157302380D01*
X184084523Y-157302380D01*
X184465476Y-156397619D02*
X184513095Y-156350000D01*
X184608333Y-156302380D01*
X184846428Y-156302380D01*
X184941666Y-156350000D01*
X184989285Y-156397619D01*
X185036904Y-156492857D01*
X185036904Y-156588095D01*
X184989285Y-156730952D01*
X184417857Y-157302380D01*
X185036904Y-157302380D01*
X208938095Y-156347619D02*
X208985714Y-156300000D01*
X209080952Y-156252380D01*
X209319047Y-156252380D01*
X209414285Y-156300000D01*
X209461904Y-156347619D01*
X209509523Y-156442857D01*
X209509523Y-156538095D01*
X209461904Y-156680952D01*
X208890476Y-157252380D01*
X209509523Y-157252380D01*
X209890476Y-156347619D02*
X209938095Y-156300000D01*
X210033333Y-156252380D01*
X210271428Y-156252380D01*
X210366666Y-156300000D01*
X210414285Y-156347619D01*
X210461904Y-156442857D01*
X210461904Y-156538095D01*
X210414285Y-156680952D01*
X209842857Y-157252380D01*
X210461904Y-157252380D01*
X234363095Y-206297619D02*
X234410714Y-206250000D01*
X234505952Y-206202380D01*
X234744047Y-206202380D01*
X234839285Y-206250000D01*
X234886904Y-206297619D01*
X234934523Y-206392857D01*
X234934523Y-206488095D01*
X234886904Y-206630952D01*
X234315476Y-207202380D01*
X234934523Y-207202380D01*
X235315476Y-206297619D02*
X235363095Y-206250000D01*
X235458333Y-206202380D01*
X235696428Y-206202380D01*
X235791666Y-206250000D01*
X235839285Y-206297619D01*
X235886904Y-206392857D01*
X235886904Y-206488095D01*
X235839285Y-206630952D01*
X235267857Y-207202380D01*
X235886904Y-207202380D01*
X259883195Y-206354619D02*
X259930814Y-206307000D01*
X260026052Y-206259380D01*
X260264147Y-206259380D01*
X260359385Y-206307000D01*
X260407004Y-206354619D01*
X260454623Y-206449857D01*
X260454623Y-206545095D01*
X260407004Y-206687952D01*
X259835576Y-207259380D01*
X260454623Y-207259380D01*
X260835576Y-206354619D02*
X260883195Y-206307000D01*
X260978433Y-206259380D01*
X261216528Y-206259380D01*
X261311766Y-206307000D01*
X261359385Y-206354619D01*
X261407004Y-206449857D01*
X261407004Y-206545095D01*
X261359385Y-206687952D01*
X260787957Y-207259380D01*
X261407004Y-207259380D01*
X193910714Y-157327380D02*
X193339285Y-157327380D01*
X193625000Y-157327380D02*
X193625000Y-156327380D01*
X193529761Y-156470238D01*
X193434523Y-156565476D01*
X193339285Y-156613095D01*
X219460714Y-157302380D02*
X218889285Y-157302380D01*
X219175000Y-157302380D02*
X219175000Y-156302380D01*
X219079761Y-156445238D01*
X218984523Y-156540476D01*
X218889285Y-156588095D01*
X244960714Y-207277380D02*
X244389285Y-207277380D01*
X244675000Y-207277380D02*
X244675000Y-206277380D01*
X244579761Y-206420238D01*
X244484523Y-206515476D01*
X244389285Y-206563095D01*
X270485714Y-207327380D02*
X269914285Y-207327380D01*
X270200000Y-207327380D02*
X270200000Y-206327380D01*
X270104761Y-206470238D01*
X270009523Y-206565476D01*
X269914285Y-206613095D01*
X285016000Y-214846000D02*
X296516000Y-214846000D01*
X303536000Y-64736000D02*
X303536000Y-75260000D01*
X278009000Y-75260000D02*
X285016000Y-79260000D01*
X278520785Y-69345619D02*
X279092214Y-69345619D01*
X278806500Y-69345619D02*
X278806500Y-70345619D01*
X278901738Y-70202761D01*
X278996976Y-70107523D01*
X279092214Y-70059904D01*
X296516000Y-79260000D02*
X303536000Y-75260000D01*
X285016000Y-214846000D02*
X285016000Y-79260000D01*
X286175214Y-207359380D02*
X285603785Y-207359380D01*
X285889500Y-207359380D02*
X285889500Y-206359380D01*
X285794261Y-206502238D01*
X285699023Y-206597476D01*
X285603785Y-206645095D01*
X294554595Y-206397619D02*
X294602214Y-206350000D01*
X294697452Y-206302380D01*
X294935547Y-206302380D01*
X295030785Y-206350000D01*
X295078404Y-206397619D01*
X295126023Y-206492857D01*
X295126023Y-206588095D01*
X295078404Y-206730952D01*
X294506976Y-207302380D01*
X295126023Y-207302380D01*
X295506976Y-206397619D02*
X295554595Y-206350000D01*
X295649833Y-206302380D01*
X295887928Y-206302380D01*
X295983166Y-206350000D01*
X296030785Y-206397619D01*
X296078404Y-206492857D01*
X296078404Y-206588095D01*
X296030785Y-206730952D01*
X295459357Y-207302380D01*
X296078404Y-207302380D01*
X296516000Y-214846000D02*
X296516000Y-79260000D01*
X278016000Y-64746000D02*
X278016000Y-75296000D01*
X302539595Y-70345619D02*
X303015785Y-70345619D01*
X303063404Y-69869428D01*
X303015785Y-69917047D01*
X302920547Y-69964666D01*
X302682452Y-69964666D01*
X302587214Y-69917047D01*
X302539595Y-69869428D01*
X302491976Y-69774190D01*
X302491976Y-69536095D01*
X302539595Y-69440857D01*
X302587214Y-69393238D01*
X302682452Y-69345619D01*
X302920547Y-69345619D01*
X303015785Y-69393238D01*
X303063404Y-69440857D01*
X301872928Y-70345619D02*
X301777690Y-70345619D01*
X301682452Y-70298000D01*
X301634833Y-70250380D01*
X301587214Y-70155142D01*
X301539595Y-69964666D01*
X301539595Y-69726571D01*
X301587214Y-69536095D01*
X301634833Y-69440857D01*
X301682452Y-69393238D01*
X301777690Y-69345619D01*
X301872928Y-69345619D01*
X301968166Y-69393238D01*
X302015785Y-69440857D01*
X302063404Y-69536095D01*
X302111023Y-69726571D01*
X302111023Y-69964666D01*
X302063404Y-70155142D01*
X302015785Y-70250380D01*
X301968166Y-70298000D01*
X301872928Y-70345619D01*
X174698285Y-69345619D02*
X175269714Y-69345619D01*
X174984000Y-69345619D02*
X174984000Y-70345619D01*
X175079238Y-70202761D01*
X175174476Y-70107523D01*
X175269714Y-70059904D01*
X151790595Y-70345619D02*
X152266785Y-70345619D01*
X152314404Y-69869428D01*
X152266785Y-69917047D01*
X152171547Y-69964666D01*
X151933452Y-69964666D01*
X151838214Y-69917047D01*
X151790595Y-69869428D01*
X151742976Y-69774190D01*
X151742976Y-69536095D01*
X151790595Y-69440857D01*
X151838214Y-69393238D01*
X151933452Y-69345619D01*
X152171547Y-69345619D01*
X152266785Y-69393238D01*
X152314404Y-69440857D01*
X151123928Y-70345619D02*
X151028690Y-70345619D01*
X150933452Y-70298000D01*
X150885833Y-70250380D01*
X150838214Y-70155142D01*
X150790595Y-69964666D01*
X150790595Y-69726571D01*
X150838214Y-69536095D01*
X150885833Y-69440857D01*
X150933452Y-69393238D01*
X151028690Y-69345619D01*
X151123928Y-69345619D01*
X151219166Y-69393238D01*
X151266785Y-69440857D01*
X151314404Y-69536095D01*
X151362023Y-69726571D01*
X151362023Y-69964666D01*
X151314404Y-70155142D01*
X151266785Y-70250380D01*
X151219166Y-70298000D01*
X151123928Y-70345619D01*
X158510714Y-157302380D02*
X157939285Y-157302380D01*
X158225000Y-157302380D02*
X158225000Y-156302380D01*
X158129761Y-156445238D01*
X158034523Y-156540476D01*
X157939285Y-156588095D01*
X166713095Y-156347619D02*
X166760714Y-156300000D01*
X166855952Y-156252380D01*
X167094047Y-156252380D01*
X167189285Y-156300000D01*
X167236904Y-156347619D01*
X167284523Y-156442857D01*
X167284523Y-156538095D01*
X167236904Y-156680952D01*
X166665476Y-157252380D01*
X167284523Y-157252380D01*
X167665476Y-156347619D02*
X167713095Y-156300000D01*
X167808333Y-156252380D01*
X168046428Y-156252380D01*
X168141666Y-156300000D01*
X168189285Y-156347619D01*
X168236904Y-156442857D01*
X168236904Y-156538095D01*
X168189285Y-156680952D01*
X167617857Y-157252380D01*
X168236904Y-157252380D01*
X168952000Y-79250000D02*
X175929000Y-75250000D01*
X150402000Y-64736000D02*
X150402000Y-75250000D01*
X157452000Y-164786000D02*
X168952000Y-164786000D01*
X157452000Y-164786000D02*
X157452000Y-79250000D01*
X175902000Y-64736000D02*
X175902000Y-75286000D01*
X168952000Y-164786000D02*
X168952000Y-79250000D01*
X150402000Y-75250000D02*
X157452000Y-79250000D01*
X277012595Y-70345619D02*
X277488785Y-70345619D01*
X277536404Y-69869428D01*
X277488785Y-69917047D01*
X277393547Y-69964666D01*
X277155452Y-69964666D01*
X277060214Y-69917047D01*
X277012595Y-69869428D01*
X276964976Y-69774190D01*
X276964976Y-69536095D01*
X277012595Y-69440857D01*
X277060214Y-69393238D01*
X277155452Y-69345619D01*
X277393547Y-69345619D01*
X277488785Y-69393238D01*
X277536404Y-69440857D01*
X276345928Y-70345619D02*
X276250690Y-70345619D01*
X276155452Y-70298000D01*
X276107833Y-70250380D01*
X276060214Y-70155142D01*
X276012595Y-69964666D01*
X276012595Y-69726571D01*
X276060214Y-69536095D01*
X276107833Y-69440857D01*
X276155452Y-69393238D01*
X276250690Y-69345619D01*
X276345928Y-69345619D01*
X276441166Y-69393238D01*
X276488785Y-69440857D01*
X276536404Y-69536095D01*
X276584023Y-69726571D01*
X276584023Y-69964666D01*
X276536404Y-70155142D01*
X276488785Y-70250380D01*
X276441166Y-70298000D01*
X276345928Y-70345619D01*
X228498595Y-70345619D02*
X228974785Y-70345619D01*
X229022404Y-69869428D01*
X228974785Y-69917047D01*
X228879547Y-69964666D01*
X228641452Y-69964666D01*
X228546214Y-69917047D01*
X228498595Y-69869428D01*
X228450976Y-69774190D01*
X228450976Y-69536095D01*
X228498595Y-69440857D01*
X228546214Y-69393238D01*
X228641452Y-69345619D01*
X228879547Y-69345619D01*
X228974785Y-69393238D01*
X229022404Y-69440857D01*
X227831928Y-70345619D02*
X227736690Y-70345619D01*
X227641452Y-70298000D01*
X227593833Y-70250380D01*
X227546214Y-70155142D01*
X227498595Y-69964666D01*
X227498595Y-69726571D01*
X227546214Y-69536095D01*
X227593833Y-69440857D01*
X227641452Y-69393238D01*
X227736690Y-69345619D01*
X227831928Y-69345619D01*
X227927166Y-69393238D01*
X227974785Y-69440857D01*
X228022404Y-69536095D01*
X228070023Y-69726571D01*
X228070023Y-69964666D01*
X228022404Y-70155142D01*
X227974785Y-70250380D01*
X227927166Y-70298000D01*
X227831928Y-70345619D01*
X225831595Y-70345619D02*
X226307785Y-70345619D01*
X226355404Y-69869428D01*
X226307785Y-69917047D01*
X226212547Y-69964666D01*
X225974452Y-69964666D01*
X225879214Y-69917047D01*
X225831595Y-69869428D01*
X225783976Y-69774190D01*
X225783976Y-69536095D01*
X225831595Y-69440857D01*
X225879214Y-69393238D01*
X225974452Y-69345619D01*
X226212547Y-69345619D01*
X226307785Y-69393238D01*
X226355404Y-69440857D01*
X225164928Y-70345619D02*
X225069690Y-70345619D01*
X224974452Y-70298000D01*
X224926833Y-70250380D01*
X224879214Y-70155142D01*
X224831595Y-69964666D01*
X224831595Y-69726571D01*
X224879214Y-69536095D01*
X224926833Y-69440857D01*
X224974452Y-69393238D01*
X225069690Y-69345619D01*
X225164928Y-69345619D01*
X225260166Y-69393238D01*
X225307785Y-69440857D01*
X225355404Y-69536095D01*
X225403023Y-69726571D01*
X225403023Y-69964666D01*
X225355404Y-70155142D01*
X225307785Y-70250380D01*
X225260166Y-70298000D01*
X225164928Y-70345619D01*
X252993785Y-69345619D02*
X253565214Y-69345619D01*
X253279500Y-69345619D02*
X253279500Y-70345619D01*
X253374738Y-70202761D01*
X253469976Y-70107523D01*
X253565214Y-70059904D01*
X251406285Y-69345619D02*
X251977714Y-69345619D01*
X251692000Y-69345619D02*
X251692000Y-70345619D01*
X251787238Y-70202761D01*
X251882476Y-70107523D01*
X251977714Y-70059904D01*
X201876285Y-69345619D02*
X202447714Y-69345619D01*
X202162000Y-69345619D02*
X202162000Y-70345619D01*
X202257238Y-70202761D01*
X202352476Y-70107523D01*
X202447714Y-70059904D01*
X177317595Y-70345619D02*
X177793785Y-70345619D01*
X177841404Y-69869428D01*
X177793785Y-69917047D01*
X177698547Y-69964666D01*
X177460452Y-69964666D01*
X177365214Y-69917047D01*
X177317595Y-69869428D01*
X177269976Y-69774190D01*
X177269976Y-69536095D01*
X177317595Y-69440857D01*
X177365214Y-69393238D01*
X177460452Y-69345619D01*
X177698547Y-69345619D01*
X177793785Y-69393238D01*
X177841404Y-69440857D01*
X176650928Y-70345619D02*
X176555690Y-70345619D01*
X176460452Y-70298000D01*
X176412833Y-70250380D01*
X176365214Y-70155142D01*
X176317595Y-69964666D01*
X176317595Y-69726571D01*
X176365214Y-69536095D01*
X176412833Y-69440857D01*
X176460452Y-69393238D01*
X176555690Y-69345619D01*
X176650928Y-69345619D01*
X176746166Y-69393238D01*
X176793785Y-69440857D01*
X176841404Y-69536095D01*
X176889023Y-69726571D01*
X176889023Y-69964666D01*
X176841404Y-70155142D01*
X176793785Y-70250380D01*
X176746166Y-70298000D01*
X176650928Y-70345619D01*
X200225285Y-69345619D02*
X200796714Y-69345619D01*
X200511000Y-69345619D02*
X200511000Y-70345619D01*
X200606238Y-70202761D01*
X200701476Y-70107523D01*
X200796714Y-70059904D01*
X233949000Y-214846000D02*
X233949000Y-79260000D01*
X252469000Y-75260000D02*
X259489000Y-79260000D01*
X252489000Y-64746000D02*
X252489000Y-75296000D01*
X270989000Y-214846000D02*
X270989000Y-79260000D01*
X259489000Y-214846000D02*
X270989000Y-214846000D01*
X259489000Y-214846000D02*
X259489000Y-79260000D01*
X270989000Y-79260000D02*
X278009000Y-75260000D01*
X226949000Y-75250000D02*
X233949000Y-79260000D01*
X226949000Y-64746000D02*
X226949000Y-75296000D01*
X233949000Y-214846000D02*
X245449000Y-214846000D01*
X245449000Y-214846000D02*
X245449000Y-79260000D01*
X245449000Y-79260000D02*
X252469000Y-75260000D01*
X201429000Y-64736000D02*
X201429000Y-75286000D01*
X208429000Y-79250000D02*
X201429000Y-75250000D01*
X219929000Y-79250000D02*
X226949000Y-75250000D01*
X208429000Y-164836000D02*
X208429000Y-79250000D01*
X219929000Y-164836000D02*
X219929000Y-79250000D01*
X208429000Y-164836000D02*
X219929000Y-164836000D01*
X194479000Y-79250000D02*
X201429000Y-75250000D01*
X175929000Y-75250000D02*
X182979000Y-79250000D01*
X194479000Y-164786000D02*
X194479000Y-79250000D01*
X182979000Y-164786000D02*
X182979000Y-79250000D01*
X182979000Y-164786000D02*
X194479000Y-164786000D01*
X150402000Y-64736000D02*
X303536000Y-64736000D01*
%LPC*%
D12*
X295990500Y-212673000D03*
X295490500Y-212673000D03*
X294990500Y-212673000D03*
X294490500Y-212673000D03*
X293990500Y-212673000D03*
X293490500Y-212673000D03*
X292990500Y-212673000D03*
X292490500Y-212673000D03*
X291990500Y-212673000D03*
X291490500Y-212673000D03*
X290990500Y-212673000D03*
X290490500Y-212673000D03*
X289990500Y-212673000D03*
X289490500Y-212673000D03*
X288990500Y-212673000D03*
X288490500Y-212673000D03*
X287990500Y-212673000D03*
X287490500Y-212673000D03*
X286990500Y-212673000D03*
X286490500Y-212673000D03*
X285990500Y-212673000D03*
X285490500Y-212673000D03*
X278477000Y-66750000D03*
X278977000Y-66750000D03*
X279477000Y-66750000D03*
X279977000Y-66750000D03*
X280477000Y-66750000D03*
X280977000Y-66750000D03*
X281477000Y-66750000D03*
X281977000Y-66750000D03*
X282477000Y-66750000D03*
X282977000Y-66750000D03*
X283477000Y-66750000D03*
X283977000Y-66750000D03*
X284477000Y-66750000D03*
X284977000Y-66750000D03*
X285477000Y-66750000D03*
X285977000Y-66750000D03*
X286477000Y-66750000D03*
X286977000Y-66750000D03*
X287477000Y-66750000D03*
X287977000Y-66750000D03*
X288477000Y-66750000D03*
X288977000Y-66750000D03*
X289477000Y-66750000D03*
X289977000Y-66750000D03*
X290477000Y-66750000D03*
X290977000Y-66750000D03*
X291477000Y-66750000D03*
X291977000Y-66750000D03*
X292477000Y-66750000D03*
X292977000Y-66750000D03*
X293477000Y-66750000D03*
X293977000Y-66750000D03*
X294477000Y-66750000D03*
X294977000Y-66750000D03*
X295477000Y-66750000D03*
X295977000Y-66750000D03*
X296477000Y-66750000D03*
X296977000Y-66750000D03*
X297477000Y-66750000D03*
X297977000Y-66750000D03*
X298477000Y-66750000D03*
X298977000Y-66750000D03*
X299477000Y-66750000D03*
X299977000Y-66750000D03*
X300477000Y-66750000D03*
X300977000Y-66750000D03*
X301477000Y-66750000D03*
X301977000Y-66750000D03*
X302477000Y-66750000D03*
X302977000Y-66750000D03*
X168423000Y-162648500D03*
X167923000Y-162648500D03*
X167423000Y-162648500D03*
X166923000Y-162648500D03*
X166423000Y-162648500D03*
X165923000Y-162648500D03*
X165423000Y-162648500D03*
X164923000Y-162648500D03*
X164423000Y-162648500D03*
X163923000Y-162648500D03*
X163423000Y-162648500D03*
X162923000Y-162648500D03*
X162423000Y-162648500D03*
X161923000Y-162648500D03*
X161423000Y-162648500D03*
X160923000Y-162648500D03*
X160423000Y-162648500D03*
X159923000Y-162648500D03*
X159423000Y-162648500D03*
X158923000Y-162648500D03*
X158423000Y-162648500D03*
X157923000Y-162648500D03*
X175423000Y-66750000D03*
X174923000Y-66750000D03*
X174423000Y-66750000D03*
X173923000Y-66750000D03*
X173423000Y-66750000D03*
X172923000Y-66750000D03*
X172423000Y-66750000D03*
X171923000Y-66750000D03*
X171423000Y-66750000D03*
X170923000Y-66750000D03*
X170423000Y-66750000D03*
X169923000Y-66750000D03*
X169423000Y-66750000D03*
X168923000Y-66750000D03*
X168423000Y-66750000D03*
X167923000Y-66750000D03*
X167423000Y-66750000D03*
X166923000Y-66750000D03*
X166423000Y-66750000D03*
X165923000Y-66750000D03*
X165423000Y-66750000D03*
X164923000Y-66750000D03*
X164423000Y-66750000D03*
X163923000Y-66750000D03*
X163423000Y-66750000D03*
X162923000Y-66750000D03*
X162423000Y-66750000D03*
X161923000Y-66750000D03*
X161423000Y-66750000D03*
X160923000Y-66750000D03*
X160423000Y-66750000D03*
X159923000Y-66750000D03*
X159423000Y-66750000D03*
X158923000Y-66750000D03*
X158423000Y-66750000D03*
X157923000Y-66750000D03*
X157423000Y-66750000D03*
X156923000Y-66750000D03*
X156423000Y-66750000D03*
X155923000Y-66750000D03*
X155423000Y-66750000D03*
X154923000Y-66750000D03*
X154423000Y-66750000D03*
X153923000Y-66750000D03*
X153423000Y-66750000D03*
X152923000Y-66750000D03*
X152423000Y-66750000D03*
X151923000Y-66750000D03*
X151423000Y-66750000D03*
X150923000Y-66750000D03*
X277450000Y-66750000D03*
X276950000Y-66750000D03*
X276450000Y-66750000D03*
X275950000Y-66750000D03*
X275450000Y-66750000D03*
X274950000Y-66750000D03*
X274450000Y-66750000D03*
X273950000Y-66750000D03*
X273450000Y-66750000D03*
X272950000Y-66750000D03*
X272450000Y-66750000D03*
X271950000Y-66750000D03*
X271450000Y-66750000D03*
X270950000Y-66750000D03*
X270450000Y-66750000D03*
X269950000Y-66750000D03*
X269450000Y-66750000D03*
X268950000Y-66750000D03*
X268450000Y-66750000D03*
X267950000Y-66750000D03*
X267450000Y-66750000D03*
X266950000Y-66750000D03*
X266450000Y-66750000D03*
X265950000Y-66750000D03*
X265450000Y-66750000D03*
X264950000Y-66750000D03*
X264450000Y-66750000D03*
X263950000Y-66750000D03*
X263450000Y-66750000D03*
X262950000Y-66750000D03*
X262450000Y-66750000D03*
X261950000Y-66750000D03*
X261450000Y-66750000D03*
X260950000Y-66750000D03*
X260450000Y-66750000D03*
X259950000Y-66750000D03*
X259450000Y-66750000D03*
X258950000Y-66750000D03*
X258450000Y-66750000D03*
X257950000Y-66750000D03*
X257450000Y-66750000D03*
X256950000Y-66750000D03*
X256450000Y-66750000D03*
X255950000Y-66750000D03*
X255450000Y-66750000D03*
X254950000Y-66750000D03*
X254450000Y-66750000D03*
X253950000Y-66750000D03*
X253450000Y-66750000D03*
X252950000Y-66750000D03*
X227450000Y-66750000D03*
X227950000Y-66750000D03*
X228450000Y-66750000D03*
X228950000Y-66750000D03*
X229450000Y-66750000D03*
X229950000Y-66750000D03*
X230450000Y-66750000D03*
X230950000Y-66750000D03*
X231450000Y-66750000D03*
X231950000Y-66750000D03*
X232450000Y-66750000D03*
X232950000Y-66750000D03*
X233450000Y-66750000D03*
X233950000Y-66750000D03*
X234450000Y-66750000D03*
X234950000Y-66750000D03*
X235450000Y-66750000D03*
X235950000Y-66750000D03*
X236450000Y-66750000D03*
X236950000Y-66750000D03*
X237450000Y-66750000D03*
X237950000Y-66750000D03*
X238450000Y-66750000D03*
X238950000Y-66750000D03*
X239450000Y-66750000D03*
X239950000Y-66750000D03*
X240450000Y-66750000D03*
X240950000Y-66750000D03*
X241450000Y-66750000D03*
X241950000Y-66750000D03*
X242450000Y-66750000D03*
X242950000Y-66750000D03*
X243450000Y-66750000D03*
X243950000Y-66750000D03*
X244450000Y-66750000D03*
X244950000Y-66750000D03*
X245450000Y-66750000D03*
X245950000Y-66750000D03*
X246450000Y-66750000D03*
X246950000Y-66750000D03*
X247450000Y-66750000D03*
X247950000Y-66750000D03*
X248450000Y-66750000D03*
X248950000Y-66750000D03*
X249450000Y-66750000D03*
X249950000Y-66750000D03*
X250450000Y-66750000D03*
X250950000Y-66750000D03*
X251450000Y-66750000D03*
X251950000Y-66750000D03*
X226450000Y-66750000D03*
X225950000Y-66750000D03*
X225450000Y-66750000D03*
X224950000Y-66750000D03*
X224450000Y-66750000D03*
X223950000Y-66750000D03*
X223450000Y-66750000D03*
X222950000Y-66750000D03*
X222450000Y-66750000D03*
X221950000Y-66750000D03*
X221450000Y-66750000D03*
X220950000Y-66750000D03*
X220450000Y-66750000D03*
X219950000Y-66750000D03*
X219450000Y-66750000D03*
X218950000Y-66750000D03*
X218450000Y-66750000D03*
X217950000Y-66750000D03*
X217450000Y-66750000D03*
X216950000Y-66750000D03*
X216450000Y-66750000D03*
X215950000Y-66750000D03*
X215450000Y-66750000D03*
X214950000Y-66750000D03*
X214450000Y-66750000D03*
X213950000Y-66750000D03*
X213450000Y-66750000D03*
X212950000Y-66750000D03*
X212450000Y-66750000D03*
X211950000Y-66750000D03*
X211450000Y-66750000D03*
X210950000Y-66750000D03*
X210450000Y-66750000D03*
X209950000Y-66750000D03*
X209450000Y-66750000D03*
X208950000Y-66750000D03*
X208450000Y-66750000D03*
X207950000Y-66750000D03*
X207450000Y-66750000D03*
X206950000Y-66750000D03*
X206450000Y-66750000D03*
X205950000Y-66750000D03*
X205450000Y-66750000D03*
X204950000Y-66750000D03*
X204450000Y-66750000D03*
X203950000Y-66750000D03*
X203450000Y-66750000D03*
X202950000Y-66750000D03*
X202450000Y-66750000D03*
X201950000Y-66750000D03*
X176450000Y-66750000D03*
X176950000Y-66750000D03*
X177450000Y-66750000D03*
X177950000Y-66750000D03*
X178450000Y-66750000D03*
X178950000Y-66750000D03*
X179450000Y-66750000D03*
X179950000Y-66750000D03*
X180450000Y-66750000D03*
X180950000Y-66750000D03*
X181450000Y-66750000D03*
X181950000Y-66750000D03*
X182450000Y-66750000D03*
X182950000Y-66750000D03*
X183450000Y-66750000D03*
X183950000Y-66750000D03*
X184450000Y-66750000D03*
X184950000Y-66750000D03*
X185450000Y-66750000D03*
X185950000Y-66750000D03*
X186450000Y-66750000D03*
X186950000Y-66750000D03*
X187450000Y-66750000D03*
X187950000Y-66750000D03*
X188450000Y-66750000D03*
X188950000Y-66750000D03*
X189450000Y-66750000D03*
X189950000Y-66750000D03*
X190450000Y-66750000D03*
X190950000Y-66750000D03*
X191450000Y-66750000D03*
X191950000Y-66750000D03*
X192450000Y-66750000D03*
X192950000Y-66750000D03*
X193450000Y-66750000D03*
X193950000Y-66750000D03*
X194450000Y-66750000D03*
X194950000Y-66750000D03*
X195450000Y-66750000D03*
X195950000Y-66750000D03*
X196450000Y-66750000D03*
X196950000Y-66750000D03*
X197450000Y-66750000D03*
X197950000Y-66750000D03*
X198450000Y-66750000D03*
X198950000Y-66750000D03*
X199450000Y-66750000D03*
X199950000Y-66750000D03*
X200450000Y-66750000D03*
X200950000Y-66750000D03*
M02*
